<svg class="icon" viewBox="0 0 1024 1024" xmlns="http://www.w3.org/2000/svg" width="200" height="200">
    <defs>
        <style>
            @font-face{font-weight:400;font-style:normal;font-family:Inter-Loom;src:url(https://cdn.loom.com/assets/fonts/inter/Inter-UI-Regular.woff2)
            format(&quot;woff2&quot;)}@font-face{font-weight:400;font-style:italic;font-family:Inter-Loom;src:url(https://cdn.loom.com/assets/fonts/inter/Inter-UI-Italic.woff2)
            format(&quot;woff2&quot;)}@font-face{font-weight:500;font-style:normal;font-family:Inter-Loom;src:url(https://cdn.loom.com/assets/fonts/inter/Inter-UI-Medium.woff2)
            format(&quot;woff2&quot;)}@font-face{font-weight:500;font-style:italic;font-family:Inter-Loom;src:url(https://cdn.loom.com/assets/fonts/inter/Inter-UI-MediumItalic.woff2)
            format(&quot;woff2&quot;)}@font-face{font-weight:700;font-style:normal;font-family:Inter-Loom;src:url(https://cdn.loom.com/assets/fonts/inter/Inter-UI-Bold.woff2)
            format(&quot;woff2&quot;)}@font-face{font-weight:700;font-style:italic;font-family:Inter-Loom;src:url(https://cdn.loom.com/assets/fonts/inter/Inter-UI-BoldItalic.woff2)
            format(&quot;woff2&quot;)}@font-face{font-weight:900;font-style:normal;font-family:Inter-Loom;src:url(https://cdn.loom.com/assets/fonts/inter/Inter-UI-Black.woff2)
            format(&quot;woff2&quot;)}@font-face{font-weight:900;font-style:italic;font-family:Inter-Loom;src:url(https://cdn.loom.com/assets/fonts/inter/Inter-UI-BlackItalic.woff2)
            format(&quot;woff2&quot;)}
        </style>
    </defs>
    <path d="M492.232 182.272H154.224c-41.96 0-76.096 34.136-76.096 76.096v84.512c0 4.696 3.8 8.496 8.496 8.496v20.928a8.491 8.491 0 0 0-8.496 8.496v77.968c0 4.696 3.8 8.496 8.496 8.496v18.416a8.491 8.491 0 0 0-8.496 8.496v313.432c0 41.968 34.136 76.104 76.096 76.104h338.008c41.96 0 76.096-34.136 76.096-76.104v-549.24c-.008-41.96-34.144-76.096-76.096-76.096zm420.664 135.16c-16.512-22.808-36.536-46.4-60.04-70.728V234.08a43.4 43.4 0 0 0-43.352-43.36h-69.712a43.408 43.408 0 0 0-43.36 43.36v61.368a48.384 48.384 0 0 0-31.64-11.776h-33.8a48.704 48.704 0 0 0-48.64 48.64v80.272a48.704 48.704 0 0 0 48.64 48.64h33.8c12.08 0 23.128-4.456 31.64-11.776v152.624a48.384 48.384 0 0 0-31.64-11.776h-33.8a48.704 48.704 0 0 0-48.64 48.64v80.28a48.704 48.704 0 0 0 48.64 48.64h33.8c12.08 0 23.128-4.456 31.64-11.776v75.848a43.4 43.4 0 0 0 43.36 43.352h69.712a43.4 43.4 0 0 0 43.352-43.352V660.536c9.648-3.264 108.08-38.64 130.552-129.776 15.232-61.784-8.576-133.352-70.512-213.328zm-17.24 184.656c-6.224 19.632-20.296 33.88-42.8 43.36v-186.64c9.032 13.504 22.624 35.36 34.392 60.528 10.464 27.952 16.272 57.92 8.408 82.752z"
          fill="#E6E7E8"/>
    <path d="M449.728 148.272h-338a67.6 67.6 0 0 0-67.6 67.6v549.256a67.6 67.6 0 0 0 67.6 67.6h338a67.6 67.6 0 0 0 67.6-67.6V215.872a67.6 67.6 0 0 0-67.6-67.6z"
          fill="#6DC9F7"/>
    <path d="M248.336 291.04v-74.464c-4.48.104-9.064 1.624-13.344 4.976-129.648 101.552-158.384 301.256-164.72 379.48-1.456 17.928 9.304 33.768 23.888 35.408 13.712 1.544 26.112-10.208 28.384-26.912C147.896 423.136 216.736 336.2 251.64 303.08a24.032 24.032 0 0 1-3.304-12.04z"
          fill="#FA759E"/>
    <path d="M494.44 598.072c-7.808-78.024-40.296-276.856-171.808-374.688-4.824-3.584-9.968-4.936-14.912-4.552v72.216c0 4.272-1.2 8.232-3.136 11.72 34.424 29.984 108.088 114.408 137.752 305.288 2.584 16.632 15.208 28.032 28.888 26.096 14.552-2.064 25.008-18.2 23.216-36.08z"
          fill="#0089EF"/>
    <path d="M283.424 191.16h-10.8a24.296 24.296 0 0 0-24.296 24.296v75.584a24.296 24.296 0 0 0 24.296 24.296h10.8a24.296 24.296 0 0 0 24.296-24.296v-75.584a24.296 24.296 0 0 0-24.296-24.296z"
          fill="#6DC9F7"/>
    <path d="M767 156.72h-69.712a34.856 34.856 0 0 0-34.856 34.856v597.84a34.856 34.856 0 0 0 34.856 34.856H767a34.856 34.856 0 0 0 34.856-34.856v-597.84A34.856 34.856 0 0 0 767 156.72z"
          fill="#FFF"/>
    <path d="M794.096 190.704h-69.712a34.856 34.856 0 0 0-34.856 34.856V823.4a34.856 34.856 0 0 0 34.856 34.856h69.712a34.856 34.856 0 0 0 34.856-34.856V225.56a34.856 34.856 0 0 0-34.856-34.856zm-171.8 58.968h-33.8c-22.072 0-40.136 18.064-40.136 40.136v80.272c0 22.072 18.064 40.136 40.136 40.136h33.8c22.072 0 40.136-18.064 40.136-40.136v-80.272c0-22.072-18.064-40.136-40.136-40.136zm0 306.632h-33.8c-22.072 0-40.136 18.064-40.136 40.136v80.272c0 22.072 18.064 40.136 40.136 40.136h33.8c22.072 0 40.136-18.064 40.136-40.136V596.44a40.256 40.256 0 0 0-40.136-40.136z"
          fill="#6DC9F7"/>
    <path d="M807.088 553.2c93.872-29.864 75.256-115.968 45.248-180.208 20.64 54.752 24.68 118.24-50.472 142.152v51.88s1.928-.632 5.224-1.92V553.2z"
          fill="#FA759E"/>
    <path d="M807.088 296.816s156.68 206.528 0 256.376v56.976s291.992-95.064 0-394.712v81.36z" fill="#0089EF"/>
    <path d="M44.128 424.272a8 8 0 0 0 8-8v-77.968a8 8 0 1 0-16 0v77.968a8 8 0 0 0 8 8z" fill="#3A2C60"/>
    <path d="M449.736 140.272H111.728c-41.68 0-75.592 33.912-75.592 75.6v84.496a8 8 0 1 0 16 0v-84.496c0-32.864 26.736-59.6 59.592-59.6h338.008c32.864 0 59.6 26.736 59.6 59.6V765.12c0 32.864-26.736 59.6-59.6 59.6H111.728c-32.856 0-59.592-26.736-59.592-59.6V451.68a8 8 0 1 0-16 0v313.44c0 41.688 33.912 75.6 75.592 75.6h338.008c41.688 0 75.6-33.912 75.6-75.6V215.872c0-41.688-33.912-75.6-75.6-75.6z"
          fill="#3A2C60"/>
    <path d="M93.264 644.392c1.112.128 2.208.176 3.304.176 16.672 0 31.232-14.28 33.904-33.96 23.688-174.104 86.36-260.352 120.632-295.664a32.048 32.048 0 0 0 21.52 8.392h10.8c8.56 0 16.304-3.408 22.088-8.864 34.184 32.48 101.232 116.728 128.92 294.8 3.008 19.328 17.432 33.088 33.8 33.088 1.36 0 2.736-.096 4.12-.288 18.776-2.664 32.256-22.76 30.056-44.8-8.144-81.256-41.48-280.992-175-380.312a30.976 30.976 0 0 0-12.08-5.432c-1.968-15.936-15.44-28.36-31.896-28.36h-10.8a32.296 32.296 0 0 0-31.72 26.616 31.192 31.192 0 0 0-10.848 5.488C98.448 318.344 68.896 518.928 62.296 600.384c-1.792 22.136 12.104 41.88 30.968 44.008zm393.216-45.528c1.336 13.384-6.168 25.912-16.376 27.36-9.256 1.288-17.968-7.216-19.856-19.408-28.696-184.576-97.552-271.08-136.112-306.28a31.92 31.92 0 0 0 1.592-9.496v-62.6c.704.384 1.416.824 2.136 1.36 128.4 95.52 160.696 289.92 168.616 369.064zm-230.144-383.4a16.32 16.32 0 0 1 16.296-16.296h10.8a16.32 16.32 0 0 1 16.296 16.296v75.584a16.312 16.312 0 0 1-16.296 16.288h-10.8a16.312 16.312 0 0 1-16.296-16.288v-75.584zM78.248 601.68c6.424-79.36 35.048-274.64 161.68-373.824.136-.104.272-.176.408-.272v63.464c0 3.552.712 6.904 1.776 10.104-38.304 37.88-102.896 126.44-127.496 307.304-1.656 12.28-10.176 21.184-19.56 20.032-10.2-1.144-17.896-13.424-16.808-26.808zm791.528-326.744c-16.472-22.752-36.448-46.28-59.92-70.56v-12.8A42.904 42.904 0 0 0 767 148.728h-69.712a42.904 42.904 0 0 0-42.856 42.848v62.496a47.872 47.872 0 0 0-32.136-12.4h-33.808a48.192 48.192 0 0 0-48.136 48.144v80.272a48.192 48.192 0 0 0 48.136 48.144h33.808c12.352 0 23.6-4.72 32.136-12.4v154.88a47.872 47.872 0 0 0-32.136-12.4h-33.808a48.192 48.192 0 0 0-48.136 48.136v80.272a48.192 48.192 0 0 0 48.136 48.144h33.808c12.352 0 23.6-4.72 32.136-12.4v76.968a42.904 42.904 0 0 0 42.856 42.856H767a42.904 42.904 0 0 0 42.856-42.856V617.68c6.904-2.288 107.808-37.232 130.568-129.536 15.224-61.712-8.632-133.232-70.648-213.208zM853.632 459.76c-6.24 19.672-20.944 34.424-43.776 43.952v-189.04c8.992 13.352 23.088 35.792 35.256 61.784 10.56 28.128 16.448 58.312 8.52 83.304zm-43.776 61.12c30.672-11.08 50.432-29.848 58.84-55.816-.056 9.568-1.248 18.84-4.008 27.536-7.472 23.576-26 40.68-54.832 51.08v-22.8zm-187.56-118.656h-33.808a32.176 32.176 0 0 1-32.136-32.144v-80.264a32.176 32.176 0 0 1 32.136-32.144h33.808a32.176 32.176 0 0 1 32.136 32.144v80.272a32.176 32.176 0 0 1-32.136 32.136zm0 306.624h-33.808a32.176 32.176 0 0 1-32.136-32.144V596.44a32.176 32.176 0 0 1 32.136-32.136h33.808a32.176 32.176 0 0 1 32.136 32.136v80.272a32.176 32.176 0 0 1-32.136 32.136zm171.56 80.576A26.88 26.88 0 0 1 767 816.28h-69.712a26.88 26.88 0 0 1-26.856-26.856V191.576a26.88 26.88 0 0 1 26.856-26.848H767a26.88 26.88 0 0 1 26.856 26.848v597.848zM924.92 484.208c-16.784 68.264-83.736 103.064-109.832 114.248v-39.512c33.96-12.144 55.768-32.816 64.856-61.512 24.432-77.072-52.168-185.976-64.856-203.256V235.44c89.808 96.288 126.744 179.92 109.832 248.768z"
          fill="#3A2C60"/>
</svg>
